<svg xmlns="http://www.w3.org/2000/svg" version="1.1" xmlns:xlink="http://www.w3.org/1999/xlink" width="512" height="512" x="0" y="0" viewBox="0 0 64 64" style="enable-background:new 0 0 512 512" xml:space="preserve" class=""><g><path d="M23 5c-6.063 0-11 4.937-11 11 0 1.645 1.355 3 3 3s3-1.355 3-3c0-2.773 2.227-5 5-5s5 2.227 5 5-2.227 5-5 5H7c-1.645 0-3 1.355-3 3s1.355 3 3 3h16c6.063 0 11-4.937 11-11S29.063 5 23 5zm26 8c-6.063 0-11 4.937-11 11 0 1.645 1.355 3 3 3s3-1.355 3-3c0-2.773 2.227-5 5-5s5 2.227 5 5-2.227 5-5 5H7c-1.645 0-3 1.355-3 3s1.355 3 3 3h42c6.063 0 11-4.937 11-11s-4.937-11-11-11zM7 37c-1.645 0-3 1.355-3 3s1.355 3 3 3h29c2.773 0 5 2.227 5 5s-2.227 5-5 5-5-2.227-5-5c0-1.645-1.355-3-3-3s-3 1.355-3 3c0 6.063 4.937 11 11 11s11-4.937 11-11-4.937-11-11-11z" fill="#f8f8f8" opacity="1" data-original="#000000" class=""></path></g></svg>